<svg xmlns="http://www.w3.org/2000/svg" viewBox="0 0 42.15 42.16"><defs><style>.cls-1{fill:#fff;}</style></defs><g id="Layer_2" data-name="Layer 2"><g id="randy.gg"><g id="Icons"><path class="cls-1" d="M21,0A21.08,21.08,0,1,0,42.15,21.08,21.06,21.06,0,0,0,21,0ZM31,29.91A1.28,1.28,0,0,1,30,31a1.29,1.29,0,0,1-1.08-.16,18.86,18.86,0,0,0-4.37-2A22.27,22.27,0,0,0,21,28.14,27.23,27.23,0,0,0,16.78,28a25.31,25.31,0,0,0-3.48.34c-1,.17-2,.37-3,.55a1.33,1.33,0,0,1-.6-2.59c.64-.16,1.29-.3,1.94-.41.95-.15,1.91-.3,2.86-.41a25.61,25.61,0,0,1,3-.18,25.38,25.38,0,0,1,10,1.88,20.91,20.91,0,0,1,2.78,1.44A1.26,1.26,0,0,1,31,29.91Zm.13-4.67c-.65-.37-1.31-.74-2-1.07a24.45,24.45,0,0,0-5.46-1.8,29.51,29.51,0,0,0-7.45-.61,25.3,25.3,0,0,0-5.26.77c-.38.1-.76.22-1.15.3a1.68,1.68,0,0,1-1.85-1.4,1.71,1.71,0,0,1,1.23-1.87,28.66,28.66,0,0,1,4.19-.89,28.72,28.72,0,0,1,4.9-.28c1,0,2,.12,3,.22a28.92,28.92,0,0,1,6.57,1.46,24.73,24.73,0,0,1,4.92,2.29,1.62,1.62,0,0,1,.85,1.29A1.69,1.69,0,0,1,31.08,25.24Zm4-6.31a1.92,1.92,0,0,1-1.48-.23,21,21,0,0,0-4.07-1.83,30.1,30.1,0,0,0-4.6-1.17c-.85-.14-1.71-.27-2.57-.36s-1.84-.15-2.77-.2c-.41,0-.84,0-1.26,0v-.05c-1,0-2.07.05-3.11.13a28.93,28.93,0,0,0-6.12,1.05,2,2,0,0,1-2.57-1.83,1.94,1.94,0,0,1,1.34-1.95c1-.28,2-.52,2.95-.72.81-.16,1.64-.28,2.46-.37s1.7-.17,2.56-.21c1.06,0,2.13-.07,3.2,0s2.33.11,3.49.22a38.07,38.07,0,0,1,6.86,1.29,26.85,26.85,0,0,1,6.23,2.63A2,2,0,0,1,35,18.93Z"/></g></g></g></svg>