<?xml version="1.0" encoding="UTF-8" standalone="no"?>
<!DOCTYPE svg PUBLIC "-//W3C//DTD SVG 1.1//EN" "http://www.w3.org/Graphics/SVG/1.1/DTD/svg11.dtd">
<svg width="100%" height="100%" viewBox="0 0 1182 1182" version="1.1" xmlns="http://www.w3.org/2000/svg" xmlns:xlink="http://www.w3.org/1999/xlink" xml:space="preserve" xmlns:serif="http://www.serif.com/" style="fill-rule:evenodd;clip-rule:evenodd;stroke-linejoin:round;stroke-miterlimit:2;">
    <g transform="matrix(24.1923,0,0,24.1923,1084.3,716.511)">
        <path d="M0,-9.512C-4.394,-9.556 -8.204,-10.927 -11.788,-13.545C-11.887,-12.963 -11.997,-12.609 -11.999,-12.251C-12.003,-7.837 -11.966,-3.423 -11.997,0.989C-12.018,3.993 -11.778,7.008 -13.262,9.851C-15.506,14.159 -18.959,16.821 -23.678,17.726C-29.846,18.909 -36.007,16.028 -39.042,10.527C-43.223,2.952 -39.645,-5.962 -32.423,-9.256C-30.136,-10.299 -27.787,-10.664 -25.327,-10.479C-24.994,-10.453 -24.412,-10.136 -24.405,-9.94C-24.339,-7.729 -24.363,-5.513 -24.363,-3.183C-27.055,-3.572 -29.346,-3.241 -31.237,-1.404C-33.357,0.651 -33.927,3.181 -33.053,5.871C-32.197,8.508 -30.31,10.197 -27.422,10.665C-22.789,11.414 -19.125,7.705 -19.161,3.267C-19.24,-6.783 -19.19,-16.832 -19.194,-26.884C-19.194,-28.388 -19.192,-28.388 -17.643,-28.388C-16.113,-28.388 -14.582,-28.357 -13.053,-28.401C-12.276,-28.421 -11.937,-28.171 -11.847,-27.364C-11.204,-21.65 -6.612,-17.221 -0.876,-16.695C-0.571,-16.665 -0.041,-16.378 -0.037,-16.199C0.021,-13.988 0,-11.774 0,-9.512" style="fill:white;fill-rule:nonzero;"/>
    </g>
</svg>
